<mxfile host="app.diagrams.net" modified="2024-01-08T17:47:57.657Z" agent="Mozilla/5.0 (Windows NT 10.0; Win64; x64) AppleWebKit/537.36 (KHTML, like Gecko) Chrome/120.0.0.0 Safari/537.36" etag="m_-hBEpT-2Efc_jDvKoE" version="22.1.17" type="github">
  <diagram name="Page-1" id="SeYKu5EFTrXueb2BLgwO">
    <mxGraphModel dx="1818" dy="868" grid="1" gridSize="10" guides="1" tooltips="1" connect="1" arrows="1" fold="1" page="0" pageScale="1" pageWidth="827" pageHeight="1169" math="0" shadow="0">
      <root>
        <mxCell id="0" />
        <mxCell id="1" parent="0" />
        <mxCell id="LCVeE6ZrLKDKCZ00pOFr-59" style="edgeStyle=orthogonalEdgeStyle;rounded=0;orthogonalLoop=1;jettySize=auto;html=1;strokeColor=#E07A5F;fontColor=#393C56;fillColor=#F2CC8F;" parent="1" source="LCVeE6ZrLKDKCZ00pOFr-39" target="LCVeE6ZrLKDKCZ00pOFr-41" edge="1">
          <mxGeometry relative="1" as="geometry" />
        </mxCell>
        <mxCell id="LCVeE6ZrLKDKCZ00pOFr-39" value="Set Parameters&lt;br&gt;" style="rounded=0;whiteSpace=wrap;html=1;labelBackgroundColor=none;fillColor=#F2CC8F;strokeColor=#E07A5F;fontColor=#393C56;" parent="1" vertex="1">
          <mxGeometry x="370" y="160" width="120" height="60" as="geometry" />
        </mxCell>
        <mxCell id="LCVeE6ZrLKDKCZ00pOFr-40" value="&lt;font style=&quot;font-size: 20px;&quot;&gt;&lt;b&gt;Respiratory Module&lt;/b&gt;&lt;/font&gt;" style="text;html=1;strokeColor=none;fillColor=none;align=center;verticalAlign=middle;whiteSpace=wrap;rounded=0;fontColor=#393C56;" parent="1" vertex="1">
          <mxGeometry x="400" y="90" width="60" height="30" as="geometry" />
        </mxCell>
        <mxCell id="LCVeE6ZrLKDKCZ00pOFr-60" style="edgeStyle=orthogonalEdgeStyle;rounded=0;orthogonalLoop=1;jettySize=auto;html=1;entryX=0.5;entryY=0;entryDx=0;entryDy=0;strokeColor=#E07A5F;fontColor=#393C56;fillColor=#F2CC8F;" parent="1" source="LCVeE6ZrLKDKCZ00pOFr-41" target="LCVeE6ZrLKDKCZ00pOFr-42" edge="1">
          <mxGeometry relative="1" as="geometry" />
        </mxCell>
        <mxCell id="LCVeE6ZrLKDKCZ00pOFr-41" value="Set Inputs" style="rounded=0;whiteSpace=wrap;html=1;labelBackgroundColor=none;fillColor=#F2CC8F;strokeColor=#E07A5F;fontColor=#393C56;" parent="1" vertex="1">
          <mxGeometry x="370" y="250" width="120" height="60" as="geometry" />
        </mxCell>
        <mxCell id="LCVeE6ZrLKDKCZ00pOFr-61" style="edgeStyle=orthogonalEdgeStyle;rounded=0;orthogonalLoop=1;jettySize=auto;html=1;strokeColor=#E07A5F;fontColor=#393C56;fillColor=#F2CC8F;" parent="1" source="LCVeE6ZrLKDKCZ00pOFr-42" target="LCVeE6ZrLKDKCZ00pOFr-44" edge="1">
          <mxGeometry relative="1" as="geometry" />
        </mxCell>
        <mxCell id="LCVeE6ZrLKDKCZ00pOFr-42" value="While i &amp;lt;= TCT" style="rounded=0;whiteSpace=wrap;html=1;labelBackgroundColor=none;fillColor=#F2CC8F;strokeColor=#E07A5F;fontColor=#393C56;" parent="1" vertex="1">
          <mxGeometry x="370" y="340" width="120" height="60" as="geometry" />
        </mxCell>
        <mxCell id="LCVeE6ZrLKDKCZ00pOFr-49" style="edgeStyle=orthogonalEdgeStyle;rounded=0;orthogonalLoop=1;jettySize=auto;html=1;strokeColor=#E07A5F;fontColor=#393C56;fillColor=#F2CC8F;" parent="1" source="LCVeE6ZrLKDKCZ00pOFr-44" target="LCVeE6ZrLKDKCZ00pOFr-45" edge="1">
          <mxGeometry relative="1" as="geometry">
            <Array as="points">
              <mxPoint x="430" y="520" />
              <mxPoint x="310" y="520" />
            </Array>
          </mxGeometry>
        </mxCell>
        <mxCell id="LCVeE6ZrLKDKCZ00pOFr-52" value="True" style="edgeLabel;html=1;align=center;verticalAlign=middle;resizable=0;points=[];fontColor=#393C56;" parent="LCVeE6ZrLKDKCZ00pOFr-49" vertex="1" connectable="0">
          <mxGeometry x="-0.1067" y="-3" relative="1" as="geometry">
            <mxPoint as="offset" />
          </mxGeometry>
        </mxCell>
        <mxCell id="LCVeE6ZrLKDKCZ00pOFr-54" style="edgeStyle=orthogonalEdgeStyle;rounded=0;orthogonalLoop=1;jettySize=auto;html=1;strokeColor=#E07A5F;fontColor=#393C56;fillColor=#F2CC8F;" parent="1" source="LCVeE6ZrLKDKCZ00pOFr-44" target="LCVeE6ZrLKDKCZ00pOFr-53" edge="1">
          <mxGeometry relative="1" as="geometry">
            <Array as="points">
              <mxPoint x="430" y="520" />
              <mxPoint x="540" y="520" />
            </Array>
          </mxGeometry>
        </mxCell>
        <mxCell id="LCVeE6ZrLKDKCZ00pOFr-55" value="False" style="edgeLabel;html=1;align=center;verticalAlign=middle;resizable=0;points=[];fontColor=#393C56;" parent="LCVeE6ZrLKDKCZ00pOFr-54" vertex="1" connectable="0">
          <mxGeometry x="0.2429" y="2" relative="1" as="geometry">
            <mxPoint as="offset" />
          </mxGeometry>
        </mxCell>
        <mxCell id="LCVeE6ZrLKDKCZ00pOFr-44" value="If Ppl &amp;lt;= PSTrigger" style="rhombus;whiteSpace=wrap;html=1;strokeColor=#E07A5F;fontColor=#393C56;fillColor=#F2CC8F;" parent="1" vertex="1">
          <mxGeometry x="390" y="430" width="80" height="80" as="geometry" />
        </mxCell>
        <mxCell id="LCVeE6ZrLKDKCZ00pOFr-57" style="edgeStyle=orthogonalEdgeStyle;rounded=0;orthogonalLoop=1;jettySize=auto;html=1;strokeColor=#E07A5F;fontColor=#393C56;fillColor=#F2CC8F;" parent="1" source="LCVeE6ZrLKDKCZ00pOFr-45" target="LCVeE6ZrLKDKCZ00pOFr-56" edge="1">
          <mxGeometry relative="1" as="geometry" />
        </mxCell>
        <mxCell id="LCVeE6ZrLKDKCZ00pOFr-45" value="Set PSTrigger &amp;amp; log triggertime" style="rounded=0;whiteSpace=wrap;html=1;strokeColor=#E07A5F;fontColor=#393C56;fillColor=#F2CC8F;" parent="1" vertex="1">
          <mxGeometry x="250" y="540" width="120" height="60" as="geometry" />
        </mxCell>
        <mxCell id="LCVeE6ZrLKDKCZ00pOFr-58" style="edgeStyle=orthogonalEdgeStyle;rounded=0;orthogonalLoop=1;jettySize=auto;html=1;entryX=0.5;entryY=0;entryDx=0;entryDy=0;strokeColor=#E07A5F;fontColor=#393C56;fillColor=#F2CC8F;" parent="1" source="LCVeE6ZrLKDKCZ00pOFr-53" target="LCVeE6ZrLKDKCZ00pOFr-56" edge="1">
          <mxGeometry relative="1" as="geometry" />
        </mxCell>
        <mxCell id="LCVeE6ZrLKDKCZ00pOFr-53" value="Continue" style="rounded=0;whiteSpace=wrap;html=1;strokeColor=#E07A5F;fontColor=#393C56;fillColor=#F2CC8F;" parent="1" vertex="1">
          <mxGeometry x="480" y="540" width="120" height="60" as="geometry" />
        </mxCell>
        <mxCell id="LCVeE6ZrLKDKCZ00pOFr-84" style="edgeStyle=orthogonalEdgeStyle;rounded=0;orthogonalLoop=1;jettySize=auto;html=1;strokeColor=#E07A5F;fontColor=#393C56;fillColor=#F2CC8F;" parent="1" source="LCVeE6ZrLKDKCZ00pOFr-56" target="LCVeE6ZrLKDKCZ00pOFr-62" edge="1">
          <mxGeometry relative="1" as="geometry">
            <Array as="points">
              <mxPoint x="430" y="750" />
              <mxPoint x="270" y="750" />
            </Array>
          </mxGeometry>
        </mxCell>
        <mxCell id="LCVeE6ZrLKDKCZ00pOFr-56" value="Calc P&lt;sub&gt;mus&lt;/sub&gt;(t)" style="rounded=0;whiteSpace=wrap;html=1;strokeColor=#E07A5F;fontColor=#393C56;fillColor=#F2CC8F;" parent="1" vertex="1">
          <mxGeometry x="370" y="670" width="120" height="60" as="geometry" />
        </mxCell>
        <mxCell id="LCVeE6ZrLKDKCZ00pOFr-72" style="edgeStyle=orthogonalEdgeStyle;rounded=0;orthogonalLoop=1;jettySize=auto;html=1;entryX=0;entryY=0.5;entryDx=0;entryDy=0;strokeColor=#E07A5F;fontColor=#393C56;fillColor=#F2CC8F;" parent="1" source="LCVeE6ZrLKDKCZ00pOFr-62" target="LCVeE6ZrLKDKCZ00pOFr-64" edge="1">
          <mxGeometry relative="1" as="geometry" />
        </mxCell>
        <mxCell id="LCVeE6ZrLKDKCZ00pOFr-62" value="Î”P&lt;sub&gt;mus&lt;/sub&gt;&amp;nbsp;=&amp;nbsp;&lt;span style=&quot;color: rgb(32, 33, 34); font-family: sans-serif; font-size: 14px; text-align: start;&quot;&gt;P&lt;/span&gt;&lt;sub style=&quot;border-color: var(--border-color); color: rgb(32, 33, 34); font-family: sans-serif; text-align: start;&quot;&gt;mus&lt;/sub&gt;&lt;span style=&quot;color: rgb(32, 33, 34); font-family: sans-serif; font-size: 14px; text-align: start;&quot;&gt;(t)-&lt;/span&gt;P&lt;sub style=&quot;border-color: var(--border-color); color: rgb(32, 33, 34); font-family: sans-serif; text-align: start;&quot;&gt;mus&lt;/sub&gt;&lt;span style=&quot;border-color: var(--border-color); color: rgb(32, 33, 34); font-family: sans-serif; text-align: start;&quot;&gt;(t-1)&lt;/span&gt;" style="rounded=0;whiteSpace=wrap;html=1;strokeColor=#E07A5F;fontColor=#393C56;fillColor=#F2CC8F;" parent="1" vertex="1">
          <mxGeometry x="210" y="770" width="120" height="60" as="geometry" />
        </mxCell>
        <mxCell id="LCVeE6ZrLKDKCZ00pOFr-73" style="edgeStyle=orthogonalEdgeStyle;rounded=0;orthogonalLoop=1;jettySize=auto;html=1;strokeColor=#E07A5F;fontColor=#393C56;fillColor=#F2CC8F;" parent="1" source="LCVeE6ZrLKDKCZ00pOFr-64" target="LCVeE6ZrLKDKCZ00pOFr-66" edge="1">
          <mxGeometry relative="1" as="geometry" />
        </mxCell>
        <mxCell id="LCVeE6ZrLKDKCZ00pOFr-64" value="Calc P&lt;sub&gt;vent&lt;/sub&gt;(t)" style="rounded=0;whiteSpace=wrap;html=1;strokeColor=#E07A5F;fontColor=#393C56;fillColor=#F2CC8F;" parent="1" vertex="1">
          <mxGeometry x="370" y="770" width="120" height="60" as="geometry" />
        </mxCell>
        <mxCell id="LCVeE6ZrLKDKCZ00pOFr-74" style="edgeStyle=orthogonalEdgeStyle;rounded=0;orthogonalLoop=1;jettySize=auto;html=1;entryX=0.5;entryY=0;entryDx=0;entryDy=0;strokeColor=#E07A5F;fontColor=#393C56;fillColor=#F2CC8F;" parent="1" source="LCVeE6ZrLKDKCZ00pOFr-66" target="LCVeE6ZrLKDKCZ00pOFr-67" edge="1">
          <mxGeometry relative="1" as="geometry">
            <Array as="points">
              <mxPoint x="590" y="850" />
              <mxPoint x="270" y="850" />
            </Array>
          </mxGeometry>
        </mxCell>
        <mxCell id="LCVeE6ZrLKDKCZ00pOFr-66" value="Calc flow(t)" style="rounded=0;whiteSpace=wrap;html=1;strokeColor=#E07A5F;fontColor=#393C56;fillColor=#F2CC8F;" parent="1" vertex="1">
          <mxGeometry x="530" y="770" width="120" height="60" as="geometry" />
        </mxCell>
        <mxCell id="LCVeE6ZrLKDKCZ00pOFr-76" style="edgeStyle=orthogonalEdgeStyle;rounded=0;orthogonalLoop=1;jettySize=auto;html=1;entryX=0;entryY=0.5;entryDx=0;entryDy=0;strokeColor=#E07A5F;fontColor=#393C56;fillColor=#F2CC8F;" parent="1" source="LCVeE6ZrLKDKCZ00pOFr-67" target="LCVeE6ZrLKDKCZ00pOFr-68" edge="1">
          <mxGeometry relative="1" as="geometry" />
        </mxCell>
        <mxCell id="LCVeE6ZrLKDKCZ00pOFr-67" value="Î”V = flow*Î”t" style="rounded=0;whiteSpace=wrap;html=1;strokeColor=#E07A5F;fontColor=#393C56;fillColor=#F2CC8F;" parent="1" vertex="1">
          <mxGeometry x="210" y="870" width="120" height="60" as="geometry" />
        </mxCell>
        <mxCell id="LCVeE6ZrLKDKCZ00pOFr-77" style="edgeStyle=orthogonalEdgeStyle;rounded=0;orthogonalLoop=1;jettySize=auto;html=1;entryX=0;entryY=0.5;entryDx=0;entryDy=0;strokeColor=#E07A5F;fontColor=#393C56;fillColor=#F2CC8F;" parent="1" source="LCVeE6ZrLKDKCZ00pOFr-68" target="LCVeE6ZrLKDKCZ00pOFr-75" edge="1">
          <mxGeometry relative="1" as="geometry" />
        </mxCell>
        <mxCell id="LCVeE6ZrLKDKCZ00pOFr-68" value="Calc V(t)" style="rounded=0;whiteSpace=wrap;html=1;strokeColor=#E07A5F;fontColor=#393C56;fillColor=#F2CC8F;" parent="1" vertex="1">
          <mxGeometry x="370" y="870" width="120" height="60" as="geometry" />
        </mxCell>
        <mxCell id="LCVeE6ZrLKDKCZ00pOFr-79" style="edgeStyle=orthogonalEdgeStyle;rounded=0;orthogonalLoop=1;jettySize=auto;html=1;strokeColor=#E07A5F;fontColor=#393C56;fillColor=#F2CC8F;" parent="1" source="LCVeE6ZrLKDKCZ00pOFr-75" target="LCVeE6ZrLKDKCZ00pOFr-78" edge="1">
          <mxGeometry relative="1" as="geometry">
            <Array as="points">
              <mxPoint x="590" y="950" />
              <mxPoint x="270" y="950" />
            </Array>
          </mxGeometry>
        </mxCell>
        <mxCell id="LCVeE6ZrLKDKCZ00pOFr-75" value="Î”P&lt;sub&gt;ao&lt;/sub&gt; = Î”t/C&lt;sub&gt;rs&lt;/sub&gt;" style="rounded=0;whiteSpace=wrap;html=1;strokeColor=#E07A5F;fontColor=#393C56;fillColor=#F2CC8F;" parent="1" vertex="1">
          <mxGeometry x="530" y="870" width="120" height="60" as="geometry" />
        </mxCell>
        <mxCell id="LCVeE6ZrLKDKCZ00pOFr-82" style="edgeStyle=orthogonalEdgeStyle;rounded=0;orthogonalLoop=1;jettySize=auto;html=1;entryX=0;entryY=0.5;entryDx=0;entryDy=0;strokeColor=#E07A5F;fontColor=#393C56;fillColor=#F2CC8F;" parent="1" source="LCVeE6ZrLKDKCZ00pOFr-78" target="LCVeE6ZrLKDKCZ00pOFr-80" edge="1">
          <mxGeometry relative="1" as="geometry" />
        </mxCell>
        <mxCell id="LCVeE6ZrLKDKCZ00pOFr-78" value="Calc P&lt;sub&gt;ao&lt;/sub&gt;(t)" style="rounded=0;whiteSpace=wrap;html=1;strokeColor=#E07A5F;fontColor=#393C56;fillColor=#F2CC8F;" parent="1" vertex="1">
          <mxGeometry x="210" y="970" width="120" height="60" as="geometry" />
        </mxCell>
        <mxCell id="LCVeE6ZrLKDKCZ00pOFr-83" style="edgeStyle=orthogonalEdgeStyle;rounded=0;orthogonalLoop=1;jettySize=auto;html=1;entryX=0;entryY=0.5;entryDx=0;entryDy=0;strokeColor=#E07A5F;fontColor=#393C56;fillColor=#F2CC8F;" parent="1" source="LCVeE6ZrLKDKCZ00pOFr-80" target="LCVeE6ZrLKDKCZ00pOFr-81" edge="1">
          <mxGeometry relative="1" as="geometry" />
        </mxCell>
        <mxCell id="LCVeE6ZrLKDKCZ00pOFr-80" value="Î”Ppl = Î”V/C&lt;sub&gt;w&lt;/sub&gt;+Î”P&lt;sub&gt;mus&lt;/sub&gt;+Î”Pao" style="rounded=0;whiteSpace=wrap;html=1;strokeColor=#E07A5F;fontColor=#393C56;fillColor=#F2CC8F;" parent="1" vertex="1">
          <mxGeometry x="370" y="970" width="120" height="60" as="geometry" />
        </mxCell>
        <mxCell id="LCVeE6ZrLKDKCZ00pOFr-98" style="edgeStyle=orthogonalEdgeStyle;rounded=0;orthogonalLoop=1;jettySize=auto;html=1;entryX=0.5;entryY=0;entryDx=0;entryDy=0;strokeColor=#E07A5F;fontColor=#393C56;fillColor=#F2CC8F;" parent="1" source="LCVeE6ZrLKDKCZ00pOFr-81" target="LCVeE6ZrLKDKCZ00pOFr-86" edge="1">
          <mxGeometry relative="1" as="geometry">
            <Array as="points">
              <mxPoint x="590" y="1050" />
              <mxPoint x="430" y="1050" />
            </Array>
          </mxGeometry>
        </mxCell>
        <mxCell id="LCVeE6ZrLKDKCZ00pOFr-81" value="Ppl(t) = Ppl+Î”Ppl" style="rounded=0;whiteSpace=wrap;html=1;strokeColor=#E07A5F;fontColor=#393C56;fillColor=#F2CC8F;" parent="1" vertex="1">
          <mxGeometry x="530" y="970" width="120" height="60" as="geometry" />
        </mxCell>
        <mxCell id="LCVeE6ZrLKDKCZ00pOFr-96" style="edgeStyle=orthogonalEdgeStyle;rounded=0;orthogonalLoop=1;jettySize=auto;html=1;entryX=0.5;entryY=0;entryDx=0;entryDy=0;strokeColor=#E07A5F;fontColor=#393C56;fillColor=#F2CC8F;" parent="1" source="LCVeE6ZrLKDKCZ00pOFr-86" target="LCVeE6ZrLKDKCZ00pOFr-92" edge="1">
          <mxGeometry relative="1" as="geometry">
            <Array as="points">
              <mxPoint x="430" y="1180" />
              <mxPoint x="310" y="1180" />
            </Array>
          </mxGeometry>
        </mxCell>
        <mxCell id="LCVeE6ZrLKDKCZ00pOFr-86" value="If flow &amp;gt;= PmusCycle" style="rhombus;whiteSpace=wrap;html=1;strokeColor=#E07A5F;fontColor=#393C56;fillColor=#F2CC8F;" parent="1" vertex="1">
          <mxGeometry x="390" y="1070" width="80" height="80" as="geometry" />
        </mxCell>
        <mxCell id="LCVeE6ZrLKDKCZ00pOFr-87" style="edgeStyle=orthogonalEdgeStyle;rounded=0;orthogonalLoop=1;jettySize=auto;html=1;strokeColor=#E07A5F;fontColor=#393C56;fillColor=#F2CC8F;" parent="1" target="LCVeE6ZrLKDKCZ00pOFr-92" edge="1">
          <mxGeometry relative="1" as="geometry">
            <mxPoint x="430" y="1170" as="sourcePoint" />
            <Array as="points">
              <mxPoint x="430" y="1180" />
              <mxPoint x="310" y="1180" />
            </Array>
          </mxGeometry>
        </mxCell>
        <mxCell id="LCVeE6ZrLKDKCZ00pOFr-88" value="True" style="edgeLabel;html=1;align=center;verticalAlign=middle;resizable=0;points=[];fontColor=#393C56;" parent="LCVeE6ZrLKDKCZ00pOFr-87" vertex="1" connectable="0">
          <mxGeometry x="-0.1067" y="-3" relative="1" as="geometry">
            <mxPoint as="offset" />
          </mxGeometry>
        </mxCell>
        <mxCell id="LCVeE6ZrLKDKCZ00pOFr-89" style="edgeStyle=orthogonalEdgeStyle;rounded=0;orthogonalLoop=1;jettySize=auto;html=1;strokeColor=#E07A5F;fontColor=#393C56;fillColor=#F2CC8F;" parent="1" target="LCVeE6ZrLKDKCZ00pOFr-94" edge="1">
          <mxGeometry relative="1" as="geometry">
            <mxPoint x="430" y="1170" as="sourcePoint" />
            <Array as="points">
              <mxPoint x="430" y="1180" />
              <mxPoint x="540" y="1180" />
            </Array>
          </mxGeometry>
        </mxCell>
        <mxCell id="LCVeE6ZrLKDKCZ00pOFr-90" value="False" style="edgeLabel;html=1;align=center;verticalAlign=middle;resizable=0;points=[];fontColor=#393C56;" parent="LCVeE6ZrLKDKCZ00pOFr-89" vertex="1" connectable="0">
          <mxGeometry x="0.2429" y="2" relative="1" as="geometry">
            <mxPoint as="offset" />
          </mxGeometry>
        </mxCell>
        <mxCell id="LCVeE6ZrLKDKCZ00pOFr-100" style="edgeStyle=orthogonalEdgeStyle;rounded=0;orthogonalLoop=1;jettySize=auto;html=1;entryX=0.5;entryY=0;entryDx=0;entryDy=0;strokeColor=#E07A5F;fontColor=#393C56;fillColor=#F2CC8F;" parent="1" source="LCVeE6ZrLKDKCZ00pOFr-92" target="LCVeE6ZrLKDKCZ00pOFr-99" edge="1">
          <mxGeometry relative="1" as="geometry" />
        </mxCell>
        <mxCell id="LCVeE6ZrLKDKCZ00pOFr-92" value="Cycle P&lt;sub&gt;mus&lt;/sub&gt; &amp;amp; log cycletime" style="rounded=0;whiteSpace=wrap;html=1;strokeColor=#E07A5F;fontColor=#393C56;fillColor=#F2CC8F;" parent="1" vertex="1">
          <mxGeometry x="250" y="1200" width="120" height="60" as="geometry" />
        </mxCell>
        <mxCell id="LCVeE6ZrLKDKCZ00pOFr-101" style="edgeStyle=orthogonalEdgeStyle;rounded=0;orthogonalLoop=1;jettySize=auto;html=1;entryX=0.5;entryY=0;entryDx=0;entryDy=0;strokeColor=#E07A5F;fontColor=#393C56;fillColor=#F2CC8F;" parent="1" source="LCVeE6ZrLKDKCZ00pOFr-94" target="LCVeE6ZrLKDKCZ00pOFr-99" edge="1">
          <mxGeometry relative="1" as="geometry" />
        </mxCell>
        <mxCell id="LCVeE6ZrLKDKCZ00pOFr-94" value="Continue" style="rounded=0;whiteSpace=wrap;html=1;strokeColor=#E07A5F;fontColor=#393C56;fillColor=#F2CC8F;" parent="1" vertex="1">
          <mxGeometry x="480" y="1200" width="120" height="60" as="geometry" />
        </mxCell>
        <mxCell id="LCVeE6ZrLKDKCZ00pOFr-102" style="edgeStyle=orthogonalEdgeStyle;rounded=0;orthogonalLoop=1;jettySize=auto;html=1;entryX=1;entryY=0.5;entryDx=0;entryDy=0;strokeColor=#E07A5F;fontColor=#393C56;fillColor=#F2CC8F;" parent="1" source="LCVeE6ZrLKDKCZ00pOFr-99" target="LCVeE6ZrLKDKCZ00pOFr-42" edge="1">
          <mxGeometry relative="1" as="geometry">
            <Array as="points">
              <mxPoint x="690" y="1330" />
              <mxPoint x="690" y="370" />
            </Array>
          </mxGeometry>
        </mxCell>
        <mxCell id="LCVeE6ZrLKDKCZ00pOFr-106" value="i++" style="edgeLabel;html=1;align=center;verticalAlign=middle;resizable=0;points=[];fontColor=#393C56;" parent="LCVeE6ZrLKDKCZ00pOFr-102" vertex="1" connectable="0">
          <mxGeometry x="0.8723" y="5" relative="1" as="geometry">
            <mxPoint y="-5" as="offset" />
          </mxGeometry>
        </mxCell>
        <mxCell id="LCVeE6ZrLKDKCZ00pOFr-99" value="Log state variables" style="rounded=0;whiteSpace=wrap;html=1;strokeColor=#E07A5F;fontColor=#393C56;fillColor=#F2CC8F;" parent="1" vertex="1">
          <mxGeometry x="370" y="1300" width="120" height="60" as="geometry" />
        </mxCell>
      </root>
    </mxGraphModel>
  </diagram>
</mxfile>
